# xmcd
#
# Track frame offsets: 
#        150
#        30551
#        59091
#        87958
#        119476
#        156695
#        185952
#        220555
#        259258
#
# Disc length: 3698 seconds
#
# Revision: 1
# Processed by: cddbd v1.5.2PL0 Copyright (c) Steve Scherf et al.
# Submitted via: ExactAudioCopy v1.0b3
#
DISCID=8a0e7009
DTITLE=Scott Whitfield - Hiding In Plain Sight
DYEAR=2001
DGENRE=Jazz
TTITLE0=Hiding In Plain Sight
TTITLE1=Little Big Horn
TTITLE2=Another Place, Another Time
TTITLE3=Inner Peace
TTITLE4=Analogy
TTITLE5=Giseng
TTITLE6=If You Can't Call, Don't Come
TTITLE7=Table Eleven
TTITLE8=Coffee Pot
EXTD=YEAR: 2001
EXTT0=
EXTT1=
EXTT2=
EXTT3=
EXTT4=
EXTT5=
EXTT6=
EXTT7=
EXTT8=
PLAYORDER=
